<svg xmlns="http://www.w3.org/2000/svg" xmlns:xlink="http://www.w3.org/1999/xlink" viewBox="0 0 48.4 41.92"><defs><style>.cls-1{isolation:isolate;}.cls-2{fill:#0b92c2;}.cls-3{fill:#077aa8;}.cls-4{fill:#077cac;}.cls-5{fill:#0680b0;}.cls-6{fill:#0a85b6;}.cls-7{fill:#0789bb;}.cls-8{fill:#058ebe;}.cls-9{fill:#058aba;}.cls-10{fill:#048fbf;}.cls-11{fill:#009bc9;}.cls-12{fill:#0895c5;}.cls-13{fill:#0398c6;}.cls-14{fill:#00a4cf;}.cls-15{fill:#089dca;}.cls-16{fill:#049fcb;}.cls-17{fill:#40afd6;}.cls-18{fill:#00a5cf;}.cls-19{fill:#01a7d1;}.cls-20{fill:#66bbde;}.cls-21{fill:#45b0d6;}.cls-22{fill:#abd7eb;}.cls-23{fill:#88c7e3;}.cls-24{fill:#67badd;}.cls-25{opacity:0.2;mix-blend-mode:multiply;}.cls-26{fill:url(#linear-gradient);}.cls-27{fill:url(#linear-gradient-2);}.cls-28{fill:url(#linear-gradient-3);}.cls-29{fill:url(#linear-gradient-4);}.cls-30{fill:url(#linear-gradient-5);}.cls-31{fill:url(#linear-gradient-6);}.cls-32{fill:url(#linear-gradient-7);}.cls-33{fill:url(#linear-gradient-8);}.cls-34{fill:url(#linear-gradient-9);}.cls-35{fill:url(#linear-gradient-10);}.cls-36{fill:url(#linear-gradient-11);}.cls-37{fill:url(#linear-gradient-12);}.cls-38{fill:url(#linear-gradient-13);}.cls-39{fill:url(#linear-gradient-14);}.cls-40{fill:url(#linear-gradient-15);}.cls-41{fill:url(#linear-gradient-16);}.cls-42{fill:url(#linear-gradient-17);}.cls-43{fill:url(#linear-gradient-18);}.cls-44{fill:url(#linear-gradient-19);}.cls-45{fill:url(#linear-gradient-20);}.cls-46{fill:url(#linear-gradient-21);}.cls-47{fill:url(#linear-gradient-22);}.cls-48{fill:url(#linear-gradient-23);}.cls-49{fill:url(#linear-gradient-24);}.cls-50{fill:url(#linear-gradient-25);}.cls-51{fill:url(#linear-gradient-26);}.cls-52{fill:url(#linear-gradient-27);}.cls-53{fill:url(#linear-gradient-28);}.cls-54{fill:url(#linear-gradient-29);}.cls-55{fill:url(#linear-gradient-30);}.cls-56{fill:url(#linear-gradient-31);}.cls-57{fill:url(#linear-gradient-32);}.cls-58{fill:url(#linear-gradient-33);}.cls-59{fill:url(#linear-gradient-34);}.cls-60{fill:url(#linear-gradient-35);}.cls-61{fill:url(#linear-gradient-36);}.cls-62{fill:url(#linear-gradient-37);}.cls-63{fill:url(#linear-gradient-38);}.cls-64{fill:url(#linear-gradient-39);}.cls-65{fill:url(#linear-gradient-40);}.cls-66{fill:url(#linear-gradient-41);}.cls-67{fill:url(#linear-gradient-42);}.cls-68{fill:url(#linear-gradient-43);}.cls-69{fill:url(#linear-gradient-44);}.cls-70{fill:url(#linear-gradient-45);}.cls-71{fill:url(#linear-gradient-46);}.cls-72{fill:url(#linear-gradient-47);}.cls-73{fill:url(#linear-gradient-48);}.cls-74{fill:url(#linear-gradient-49);}.cls-75{fill:#fff;}</style><linearGradient id="linear-gradient" x1="-380.12" y1="-739.36" x2="-374.14" y2="-739.36" gradientTransform="translate(741.61 -338.21) rotate(-90)" gradientUnits="userSpaceOnUse"><stop offset="0.13" stop-color="#fff"/><stop offset="0.24" stop-color="#fbfdfe"/><stop offset="0.36" stop-color="#edf8fd"/><stop offset="0.49" stop-color="#d7effa"/><stop offset="0.61" stop-color="#b9e3f5"/><stop offset="0.74" stop-color="#91d4f0"/><stop offset="0.87" stop-color="#61c1e9"/><stop offset="1" stop-color="#2bace2"/></linearGradient><linearGradient id="linear-gradient-2" x1="-380.12" y1="-717.41" x2="-376.9" y2="-717.41" xlink:href="#linear-gradient"/><linearGradient id="linear-gradient-3" x1="-380.12" y1="-729.51" x2="-375.71" y2="-729.51" xlink:href="#linear-gradient"/><linearGradient id="linear-gradient-4" x1="-380.12" y1="-733.97" x2="-375.09" y2="-733.97" xlink:href="#linear-gradient"/><linearGradient id="linear-gradient-5" x1="-380.12" y1="-736.29" x2="-374.71" y2="-736.29" xlink:href="#linear-gradient"/><linearGradient id="linear-gradient-6" x1="-380.12" y1="-737.71" x2="-374.46" y2="-737.71" xlink:href="#linear-gradient"/><linearGradient id="linear-gradient-7" x1="-380.12" y1="-738.67" x2="-374.28" y2="-738.67" xlink:href="#linear-gradient"/><linearGradient id="linear-gradient-8" x1="-380.12" y1="-705.31" x2="-375.71" y2="-705.31" xlink:href="#linear-gradient"/><linearGradient id="linear-gradient-9" x1="-376.9" y1="-717.41" x2="-373.14" y2="-717.41" xlink:href="#linear-gradient"/><linearGradient id="linear-gradient-10" x1="-375.71" y1="-724.18" x2="-371.45" y2="-724.18" xlink:href="#linear-gradient"/><linearGradient id="linear-gradient-11" x1="-375.09" y1="-728.53" x2="-370.26" y2="-728.53" xlink:href="#linear-gradient"/><linearGradient id="linear-gradient-12" x1="-374.71" y1="-731.55" x2="-369.38" y2="-731.55" xlink:href="#linear-gradient"/><linearGradient id="linear-gradient-13" x1="-374.28" y1="-735.48" x2="-368.15" y2="-735.48" xlink:href="#linear-gradient"/><linearGradient id="linear-gradient-14" x1="-374.46" y1="-733.77" x2="-368.69" y2="-733.77" xlink:href="#linear-gradient"/><linearGradient id="linear-gradient-15" x1="-380.12" y1="-700.85" x2="-375.09" y2="-700.85" xlink:href="#linear-gradient"/><linearGradient id="linear-gradient-16" x1="-375.71" y1="-710.63" x2="-371.45" y2="-710.63" xlink:href="#linear-gradient"/><linearGradient id="linear-gradient-17" x1="-373.14" y1="-717.41" x2="-368.69" y2="-717.41" xlink:href="#linear-gradient"/><linearGradient id="linear-gradient-18" x1="-371.45" y1="-722.39" x2="-366.53" y2="-722.39" xlink:href="#linear-gradient"/><linearGradient id="linear-gradient-19" x1="-370.26" y1="-726.21" x2="-364.79" y2="-726.21" xlink:href="#linear-gradient"/><linearGradient id="linear-gradient-20" x1="-368.69" y1="-731.7" x2="-362.16" y2="-731.7" xlink:href="#linear-gradient"/><linearGradient id="linear-gradient-21" x1="-369.38" y1="-729.24" x2="-363.36" y2="-729.24" xlink:href="#linear-gradient"/><linearGradient id="linear-gradient-22" x1="-380.12" y1="-698.53" x2="-374.71" y2="-698.53" xlink:href="#linear-gradient"/><linearGradient id="linear-gradient-23" x1="-375.09" y1="-706.29" x2="-370.26" y2="-706.29" xlink:href="#linear-gradient"/><linearGradient id="linear-gradient-24" x1="-371.45" y1="-712.43" x2="-366.53" y2="-712.43" xlink:href="#linear-gradient"/><linearGradient id="linear-gradient-25" x1="-368.69" y1="-717.41" x2="-363.36" y2="-717.41" xlink:href="#linear-gradient"/><linearGradient id="linear-gradient-26" x1="-366.53" y1="-721.54" x2="-360.63" y2="-721.54" xlink:href="#linear-gradient"/><linearGradient id="linear-gradient-27" x1="-363.36" y1="-728.01" x2="-356.17" y2="-728.01" xlink:href="#linear-gradient"/><linearGradient id="linear-gradient-28" x1="-364.79" y1="-725.03" x2="-358.25" y2="-725.03" xlink:href="#linear-gradient"/><linearGradient id="linear-gradient-29" x1="-380.12" y1="-697.11" x2="-374.46" y2="-697.11" xlink:href="#linear-gradient"/><linearGradient id="linear-gradient-30" x1="-374.71" y1="-703.27" x2="-369.38" y2="-703.27" xlink:href="#linear-gradient"/><linearGradient id="linear-gradient-31" x1="-370.26" y1="-708.6" x2="-364.79" y2="-708.6" xlink:href="#linear-gradient"/><linearGradient id="linear-gradient-32" x1="-366.53" y1="-713.28" x2="-360.63" y2="-713.28" xlink:href="#linear-gradient"/><linearGradient id="linear-gradient-33" x1="-363.36" y1="-717.41" x2="-356.84" y2="-717.41" xlink:href="#linear-gradient"/><linearGradient id="linear-gradient-34" x1="-358.25" y1="-724.4" x2="-350.18" y2="-724.4" xlink:href="#linear-gradient"/><linearGradient id="linear-gradient-35" x1="-360.63" y1="-721.09" x2="-353.37" y2="-721.09" xlink:href="#linear-gradient"/><linearGradient id="linear-gradient-36" x1="-380.12" y1="-695.46" x2="-374.14" y2="-695.46" xlink:href="#linear-gradient"/><linearGradient id="linear-gradient-37" x1="-374.28" y1="-699.34" x2="-368.15" y2="-699.34" xlink:href="#linear-gradient"/><linearGradient id="linear-gradient-38" x1="-368.69" y1="-703.12" x2="-362.16" y2="-703.12" xlink:href="#linear-gradient"/><linearGradient id="linear-gradient-39" x1="-363.36" y1="-706.81" x2="-356.17" y2="-706.81" xlink:href="#linear-gradient"/><linearGradient id="linear-gradient-40" x1="-358.25" y1="-710.42" x2="-350.18" y2="-710.42" xlink:href="#linear-gradient"/><linearGradient id="linear-gradient-41" x1="-348.69" y1="-717.41" x2="-338.21" y2="-717.41" xlink:href="#linear-gradient"/><linearGradient id="linear-gradient-42" x1="-353.37" y1="-713.95" x2="-344.19" y2="-713.95" xlink:href="#linear-gradient"/><linearGradient id="linear-gradient-43" x1="-380.12" y1="-696.15" x2="-374.28" y2="-696.15" xlink:href="#linear-gradient"/><linearGradient id="linear-gradient-44" x1="-374.46" y1="-701.04" x2="-368.69" y2="-701.04" xlink:href="#linear-gradient"/><linearGradient id="linear-gradient-45" x1="-369.38" y1="-705.58" x2="-363.36" y2="-705.58" xlink:href="#linear-gradient"/><linearGradient id="linear-gradient-46" x1="-364.79" y1="-709.79" x2="-358.25" y2="-709.79" xlink:href="#linear-gradient"/><linearGradient id="linear-gradient-47" x1="-360.63" y1="-713.73" x2="-353.37" y2="-713.73" xlink:href="#linear-gradient"/><linearGradient id="linear-gradient-48" x1="-353.37" y1="-720.87" x2="-344.19" y2="-720.87" xlink:href="#linear-gradient"/><linearGradient id="linear-gradient-49" x1="-356.84" y1="-717.41" x2="-348.69" y2="-717.41" xlink:href="#linear-gradient"/></defs><title>actuaries</title><g class="cls-1"><g id="Layer_2" data-name="Layer 2"><g id="Layer_1_copy" data-name="Layer 1 copy"><path class="cls-2" d="M3.46,35.93,0,41.92l4.5-5.85-1-.14"/><polyline class="cls-3" points="24.2 38.69 0 41.92 48.4 41.92 24.2 38.69"/><polyline class="cls-4" points="15.28 37.51 0 41.92 0 41.92 24.2 38.69 15.28 37.51"/><polyline class="cls-5" points="10.65 36.89 0 41.92 15.28 37.51 10.65 36.89"/><polyline class="cls-6" points="7.81 36.51 0 41.92 10.65 36.89 7.81 36.51"/><polyline class="cls-7" points="5.89 36.25 0 41.92 7.81 36.51 5.89 36.25"/><polyline class="cls-8" points="4.5 36.07 0 41.92 5.89 36.25 4.5 36.07"/><polyline class="cls-4" points="33.12 37.51 24.2 38.69 48.4 41.92 33.12 37.51"/><polyline class="cls-5" points="24.2 34.93 15.28 37.51 24.2 38.69 33.12 37.51 24.2 34.93"/><polyline class="cls-6" points="18.36 33.24 10.65 36.89 15.28 37.51 24.2 34.93 18.36 33.24"/><polyline class="cls-9" points="14.24 32.05 7.81 36.51 10.65 36.89 18.36 33.24 14.24 32.05"/><polyline class="cls-10" points="11.17 31.17 5.89 36.25 7.81 36.51 14.24 32.05 11.17 31.17"/><polyline class="cls-11" points="6.91 29.94 6.91 29.94 3.46 35.93 4.5 36.07 8.8 30.48 6.91 29.94"/><polyline class="cls-12" points="8.8 30.48 4.5 36.07 5.89 36.25 11.17 31.17 8.8 30.48"/><polyline class="cls-5" points="37.75 36.89 33.12 37.51 48.4 41.92 37.75 36.89"/><polyline class="cls-6" points="30.04 33.24 24.2 34.93 33.12 37.51 37.75 36.89 30.04 33.24"/><polyline class="cls-9" points="24.2 30.48 18.36 33.24 24.2 34.93 30.04 33.24 24.2 30.48"/><polyline class="cls-10" points="19.62 28.32 14.24 32.05 18.36 33.24 24.2 30.48 19.62 28.32"/><polyline class="cls-13" points="15.94 26.58 11.17 31.17 14.24 32.05 19.62 28.32 15.94 26.58"/><polyline class="cls-14" points="10.37 23.95 6.91 29.94 8.8 30.48 12.91 25.15 10.37 23.95"/><polyline class="cls-15" points="12.91 25.15 8.8 30.48 11.17 31.17 15.94 26.58 12.91 25.15"/><polyline class="cls-6" points="40.59 36.51 37.75 36.89 48.4 41.92 40.59 36.51"/><polyline class="cls-9" points="34.17 32.05 30.04 33.24 37.75 36.89 40.59 36.51 34.17 32.05"/><polyline class="cls-10" points="28.78 28.32 24.2 30.48 30.04 33.24 34.17 32.05 28.78 28.32"/><polyline class="cls-13" points="24.2 25.15 19.62 28.32 24.2 30.48 28.78 28.32 24.2 25.15"/><polyline class="cls-16" points="20.26 22.42 15.94 26.58 19.62 28.32 24.2 25.15 20.26 22.42"/><polyline class="cls-17" points="13.83 17.96 13.83 17.96 10.37 23.95 12.91 25.15 16.84 20.05 13.83 17.96"/><polyline class="cls-18" points="16.84 20.05 12.91 25.15 15.94 26.58 20.26 22.42 16.84 20.05"/><polyline class="cls-7" points="42.51 36.25 40.59 36.51 48.4 41.92 48.4 41.92 42.51 36.25"/><polyline class="cls-10" points="37.23 31.17 34.17 32.05 40.59 36.51 42.51 36.25 37.23 31.17"/><polyline class="cls-13" points="32.46 26.58 28.78 28.32 34.17 32.05 37.23 31.17 32.46 26.58"/><polyline class="cls-16" points="28.14 22.42 24.2 25.15 28.78 28.32 32.46 26.58 28.14 22.42"/><polyline class="cls-19" points="24.2 18.63 20.26 22.42 24.2 25.15 28.14 22.42 24.2 18.63"/><polyline class="cls-20" points="17.29 11.98 13.83 17.96 16.84 20.05 20.6 15.16 17.29 11.98"/><polyline class="cls-21" points="20.6 15.16 16.84 20.05 20.26 22.42 24.2 18.63 20.6 15.16"/><polyline class="cls-2" points="44.94 35.93 43.9 36.07 48.4 41.91 44.94 35.93"/><polyline class="cls-11" points="41.49 29.94 39.6 30.48 43.9 36.07 44.94 35.93 44.94 35.93 41.49 29.94"/><polyline class="cls-14" points="38.03 23.95 35.49 25.15 39.6 30.48 41.49 29.94 38.03 23.95"/><polyline class="cls-17" points="34.57 17.96 31.57 20.05 35.49 25.15 38.03 23.95 34.57 17.96"/><polyline class="cls-20" points="31.11 11.98 27.8 15.16 31.57 20.05 34.57 17.96 31.11 11.98"/><polyline class="cls-22" points="24.2 0 20.74 5.99 24.2 10.48 27.66 5.99 24.2 0"/><polyline class="cls-23" points="27.66 5.99 24.2 10.48 27.8 15.16 31.11 11.98 27.66 5.99"/><polyline class="cls-8" points="43.9 36.07 43.9 36.07 42.51 36.25 48.4 41.92 48.4 41.92 43.9 36.07"/><polyline class="cls-12" points="39.6 30.48 39.6 30.48 37.23 31.17 42.51 36.25 43.9 36.07 39.6 30.48"/><polyline class="cls-15" points="35.49 25.15 35.49 25.15 32.46 26.58 37.23 31.17 39.6 30.48 35.49 25.15"/><polyline class="cls-18" points="31.57 20.05 31.57 20.05 28.14 22.42 32.46 26.58 35.49 25.15 31.57 20.05"/><polyline class="cls-21" points="27.8 15.16 27.8 15.16 24.2 18.63 28.14 22.42 31.57 20.05 27.8 15.16"/><polyline class="cls-23" points="20.74 5.99 20.74 5.99 17.29 11.98 20.6 15.16 24.2 10.48 20.74 5.99 20.74 5.99"/><polyline class="cls-24" points="24.2 10.48 20.6 15.16 24.2 18.63 27.8 15.16 24.2 10.48"/><g class="cls-25"><path class="cls-26" d="M3.46,35.93,0,41.92l4.5-5.85-1-.14"/><polyline class="cls-27" points="24.2 38.69 0 41.92 48.4 41.92 24.2 38.69"/><polyline class="cls-28" points="15.28 37.51 0 41.92 0 41.92 24.2 38.69 15.28 37.51"/><polyline class="cls-29" points="10.65 36.89 0 41.92 15.28 37.51 10.65 36.89"/><polyline class="cls-30" points="7.81 36.51 0 41.92 10.65 36.89 7.81 36.51"/><polyline class="cls-31" points="5.89 36.25 0 41.92 7.81 36.51 5.89 36.25"/><polyline class="cls-32" points="4.5 36.07 0 41.92 5.89 36.25 4.5 36.07"/><polyline class="cls-33" points="33.12 37.51 24.2 38.69 48.4 41.92 33.12 37.51"/><polyline class="cls-34" points="24.2 34.93 15.28 37.51 24.2 38.69 33.12 37.51 24.2 34.93"/><polyline class="cls-35" points="18.36 33.24 10.65 36.89 15.28 37.51 24.2 34.93 18.36 33.24"/><polyline class="cls-36" points="14.23 32.05 7.81 36.51 10.65 36.89 18.36 33.24 14.23 32.05"/><polyline class="cls-37" points="11.17 31.17 5.89 36.25 7.81 36.51 14.23 32.05 11.17 31.17"/><polyline class="cls-38" points="6.91 29.94 6.91 29.94 3.46 35.93 4.5 36.07 8.8 30.49 6.91 29.94"/><polyline class="cls-39" points="8.8 30.49 4.5 36.07 5.89 36.25 11.17 31.17 8.8 30.49"/><polyline class="cls-40" points="37.75 36.89 33.12 37.51 48.4 41.92 37.75 36.89"/><polyline class="cls-41" points="30.04 33.24 24.2 34.93 33.12 37.51 37.75 36.89 30.04 33.24"/><polyline class="cls-42" points="24.2 30.49 18.36 33.24 24.2 34.93 30.04 33.24 24.2 30.49"/><polyline class="cls-43" points="19.62 28.32 14.23 32.05 18.36 33.24 24.2 30.49 19.62 28.32"/><polyline class="cls-44" points="15.94 26.58 11.17 31.17 14.23 32.05 19.62 28.32 15.94 26.58"/><polyline class="cls-45" points="10.37 23.95 6.91 29.94 8.8 30.49 12.91 25.15 10.37 23.95"/><polyline class="cls-46" points="12.91 25.15 8.8 30.49 11.17 31.17 15.94 26.58 12.91 25.15"/><polyline class="cls-47" points="40.59 36.51 37.75 36.89 48.4 41.92 40.59 36.51"/><polyline class="cls-48" points="34.17 32.05 30.04 33.24 37.75 36.89 40.59 36.51 34.17 32.05"/><polyline class="cls-49" points="28.78 28.32 24.2 30.49 30.04 33.24 34.17 32.05 28.78 28.32"/><polyline class="cls-50" points="24.2 25.15 19.62 28.32 24.2 30.49 28.78 28.32 24.2 25.15"/><polyline class="cls-51" points="20.26 22.42 15.94 26.58 19.62 28.32 24.2 25.15 20.26 22.42"/><polyline class="cls-52" points="13.83 17.96 13.83 17.96 10.37 23.95 12.91 25.15 16.84 20.05 13.83 17.96"/><polyline class="cls-53" points="16.84 20.05 12.91 25.15 15.94 26.58 20.26 22.42 16.84 20.05"/><polyline class="cls-54" points="42.51 36.25 40.59 36.51 48.4 41.92 48.4 41.92 42.51 36.25"/><polyline class="cls-55" points="37.23 31.17 34.17 32.05 40.59 36.51 42.51 36.25 37.23 31.17"/><polyline class="cls-56" points="32.46 26.58 28.78 28.32 34.17 32.05 37.23 31.17 32.46 26.58"/><polyline class="cls-57" points="28.14 22.42 24.2 25.15 28.78 28.32 32.46 26.58 28.14 22.42"/><polyline class="cls-58" points="24.2 18.63 20.26 22.42 24.2 25.15 28.14 22.42 24.2 18.63"/><polyline class="cls-59" points="17.29 11.98 13.83 17.96 16.84 20.05 20.6 15.16 17.29 11.98"/><polyline class="cls-60" points="20.6 15.16 16.84 20.05 20.26 22.42 24.2 18.63 20.6 15.16"/><polyline class="cls-61" points="44.94 35.93 43.9 36.07 48.4 41.91 44.94 35.93"/><polyline class="cls-62" points="41.49 29.94 39.6 30.49 43.9 36.07 44.94 35.93 44.94 35.93 41.49 29.94"/><polyline class="cls-63" points="38.03 23.95 35.49 25.15 39.6 30.49 41.49 29.94 38.03 23.95"/><polyline class="cls-64" points="34.57 17.96 31.57 20.05 35.49 25.15 38.03 23.95 34.57 17.96"/><polyline class="cls-65" points="31.11 11.98 27.8 15.16 31.57 20.05 34.57 17.96 31.11 11.98"/><polyline class="cls-66" points="24.2 0 20.74 5.99 24.2 10.48 27.66 5.99 24.2 0"/><polyline class="cls-67" points="27.66 5.99 24.2 10.48 27.8 15.16 31.11 11.98 27.66 5.99"/><polyline class="cls-68" points="43.9 36.07 43.9 36.07 42.51 36.25 48.4 41.92 48.4 41.92 43.9 36.07"/><polyline class="cls-69" points="39.6 30.49 39.6 30.49 37.23 31.17 42.51 36.25 43.9 36.07 39.6 30.49"/><polyline class="cls-70" points="35.49 25.15 35.49 25.15 32.46 26.58 37.23 31.17 39.6 30.49 35.49 25.15"/><polyline class="cls-71" points="31.57 20.05 31.57 20.05 28.14 22.42 32.46 26.58 35.49 25.15 31.57 20.05"/><polyline class="cls-72" points="27.8 15.16 27.8 15.16 24.2 18.63 28.14 22.42 31.57 20.05 27.8 15.16"/><polyline class="cls-73" points="20.74 5.99 20.74 5.99 17.29 11.98 20.6 15.16 24.2 10.48 20.74 5.99 20.74 5.99"/><polyline class="cls-74" points="24.2 10.48 20.6 15.16 24.2 18.63 27.8 15.16 24.2 10.48"/></g><polygon class="cls-75" points="19.32 32 19.32 30.08 23.43 24.36 19.55 18.56 19.55 16.7 28.86 16.7 28.86 19.46 23.5 19.46 26.78 24.35 23.34 29.19 29.08 29.19 29.08 32 19.32 32"/></g></g></g></svg>