<?xml version="1.0" encoding="UTF-8"?>
<svg id="Layer_1" xmlns="http://www.w3.org/2000/svg" viewBox="0 0 304.36 189.2">
	<defs>
		<style>
			.cls-1{fill:#3D69FF;}
		</style>
	</defs>
	<path class="cls-1" d="m86.61,54.99c0,17.47-14.16,31.62-31.62,31.62s-31.62-14.16-31.62-31.62,14.16-31.62,31.62-31.62,31.62,14.16,31.62,31.62m23.37,54.99v-54.99C109.98,24.62,85.36,0,54.99,0S0,24.62,0,54.99s24.62,54.99,54.99,54.99h54.99Zm174.17,78.93c1.79,0,3.27-1.45,3.27-3.27s-1.49-3.23-3.27-3.23-3.27,1.45-3.27,3.23,1.49,3.27,3.27,3.27m-22.91-13.43c.47-3.06,2.81-5.23,5.78-5.23,3.23,0,5.27,2.08,5.74,5.23h-11.52Zm5.99,13.73c5.36,0,8.84-2.59,9.99-6.29h-5.36c-.68,1.27-2.08,2.3-4.55,2.3-3.4,0-5.91-2.42-6.16-6.04h16.66c-.08-8.25-4.42-12.97-10.92-12.97-5.91,0-10.88,4.76-10.88,11.56s4.29,11.44,11.22,11.44m-16.58-.42c1.19,0,2.51-.17,3.23-.43v-3.7c-.72.13-1.36.21-1.87.21-2.13,0-2.89-1.19-2.89-3.44v-10.63h4.34v-3.95h-4.34v-6.38h-4.93v6.38h-3.7v3.95h3.7v11.56c0,4.8,2.93,6.42,6.46,6.42m-24.44.42c2.85,0,4.93-1.15,6.12-3.32v2.68h4.97v-21.72h-5.06v12.03c0,4.38-2.3,6.16-4.55,6.16-2.55,0-3.66-1.7-3.66-4.59v-13.6h-5.06v14.37c0,5.27,2.98,7.99,7.23,7.99m-14.07-.42c1.19,0,2.51-.17,3.23-.43v-3.7c-.72.13-1.36.21-1.87.21-2.12,0-2.89-1.19-2.89-3.44v-10.63h4.34v-3.95h-4.34v-6.38h-4.93v6.38h-3.7v3.95h3.7v11.56c0,4.8,2.93,6.42,6.46,6.42m-19.17-27.46c0,1.83,1.49,3.32,3.32,3.32s3.32-1.49,3.32-3.32-1.49-3.36-3.32-3.36-3.32,1.49-3.32,3.36m.81,27.25h5.02v-21.72h-5.02v21.72Zm-7.06.21c1.19,0,2.51-.17,3.23-.43v-3.7c-.72.13-1.36.21-1.87.21-2.12,0-2.89-1.19-2.89-3.44v-10.63h4.34v-3.95h-4.34v-6.38h-4.93v6.38h-3.7v3.95h3.7v11.56c0,4.8,2.93,6.42,6.46,6.42m-21.3.42c5.48,0,9.61-2.72,9.61-7.06,0-3.78-3.15-5.48-7.95-6.55l-2.64-.6c-2.42-.51-3.44-1.11-3.44-2.51,0-1.57,1.57-2.55,3.74-2.55,2.42,0,3.95,1.02,4.46,2.76h5.06c-.51-3.53-3.7-6.46-9.48-6.46-5.27,0-8.93,2.72-8.93,6.55,0,3.61,2.59,5.44,7.31,6.46l2.55.55c3.06.64,4.17,1.36,4.17,2.85,0,1.79-1.74,2.81-4.21,2.81-3.1,0-4.76-1.49-5.14-3.66h-5.44c.34,4.34,4.04,7.4,10.33,7.4m-32.56-.64h5.06v-12.12c0-4.29,2.38-6.08,4.89-6.08,2.64,0,3.57,1.79,3.57,4.17v14.03h5.1v-14.45c0-5.1-2.85-7.91-7.23-7.91-3.15,0-5.31,1.62-6.46,3.44v-2.81h-4.93v21.72Zm-11.05,0h5.31v-29.76h-5.31v29.76Zm172.96-39.94c5.48,0,9.61-2.72,9.61-7.06,0-3.78-3.15-5.48-7.95-6.55l-2.64-.6c-2.42-.51-3.44-1.11-3.44-2.51,0-1.57,1.57-2.55,3.74-2.55,2.42,0,3.95,1.02,4.46,2.76h5.06c-.51-3.53-3.7-6.46-9.48-6.46-5.27,0-8.93,2.72-8.93,6.55,0,3.61,2.59,5.44,7.31,6.46l2.55.55c3.06.64,4.17,1.36,4.17,2.85,0,1.79-1.74,2.81-4.21,2.81-3.1,0-4.76-1.49-5.14-3.66h-5.44c.34,4.34,4.04,7.4,10.33,7.4m-29.11-13.73c.47-3.06,2.81-5.23,5.78-5.23,3.23,0,5.27,2.08,5.74,5.23h-11.52Zm5.99,13.73c5.36,0,8.84-2.59,9.99-6.29h-5.36c-.68,1.27-2.08,2.3-4.55,2.3-3.4,0-5.91-2.42-6.16-6.04h16.66c-.08-8.25-4.42-12.97-10.92-12.97-5.91,0-10.88,4.76-10.88,11.56s4.29,11.44,11.22,11.44m-21.12-27.89c0,1.83,1.49,3.32,3.32,3.32s3.32-1.49,3.32-3.32-1.49-3.36-3.32-3.36-3.32,1.49-3.32,3.36m.81,27.25h5.02v-21.72h-5.02v21.72Zm-15.93,0h5.06v-9.82c0-3.87,1.11-6.42,3.74-7.35,1.06-.38,2.34-.47,3.87-.34v-4.85c-3.78-.21-6.33,1.23-7.74,5.1v-4.46h-4.93v21.72Zm-21.75-10.88c0-4.51,1.95-7.4,5.53-7.4,3.36,0,5.7,3.1,5.7,7.4s-2.34,7.48-5.7,7.48c-3.57,0-5.53-2.93-5.53-7.48m4.55,11.52c3.15,0,5.44-1.4,6.59-3.36v2.72h5.1v-21.72h-5.1v2.81c-1.15-1.95-3.44-3.44-6.59-3.44-5.53,0-9.73,4.34-9.73,11.48s4.21,11.52,9.73,11.52m-24.94,0c2.85,0,4.93-1.15,6.12-3.32v2.68h4.97v-21.72h-5.06v12.03c0,4.38-2.3,6.16-4.55,6.16-2.55,0-3.66-1.7-3.66-4.59v-13.6h-5.06v14.37c0,5.27,2.98,7.99,7.23,7.99m-14.02-.42c1.19,0,2.51-.17,3.23-.43v-3.7c-.72.13-1.36.21-1.87.21-2.13,0-2.89-1.19-2.89-3.44v-10.63h4.34v-3.95h-4.34v-6.38h-4.93v6.38h-3.7v3.95h3.7v11.56c0,4.8,2.93,6.42,6.46,6.42m-21.58.42c5.7,0,9.31-3.44,9.91-7.48h-5.02c-.68,1.91-2.13,3.32-4.8,3.32-3.1,0-5.57-2.51-5.57-7.27s2.42-7.35,5.7-7.35c2.47,0,4,1.36,4.68,3.32h4.97c-.6-4.08-4.08-7.48-9.74-7.48-6.25,0-10.92,4.51-10.92,11.52s4.59,11.44,10.8,11.44m-30.13-11.31l2-5.82c.85-2.21,1.66-4.72,2.64-7.69h.04c1.02,2.98,1.87,5.53,2.64,7.65l2,5.87h-9.31Zm-9.27,10.67h5.57l2.13-6.21h12.41l2.12,6.21h5.7l-10.97-29.76h-5.87l-11.1,29.76Z"/>
</svg>